MEETING.EVIL.(2012).720P.X264 MKV NL.Subs TBS 



Verenigde Staten
Misdaad / Drama

90 minuten


geregisseerd door Chris Fisher
met Samuel L. Jackson, Luke Wilson en Leslie Bibb

Op een maandagochtend gaat de deurbel bij de jonge familieman John Felton. Voor de deur staat een vreemdeling met dure sportschoenen en een baseballpet die zichzelf voorstelt als Richie. Hij vertelt John dat hij gestrand is met zijn auto en vraagt om hulp. Een woordenwisseling bij het benzinestation leidt tot een schokkend misdrijf. Aan het einde van deze aangrijpende dag keert John terug naar huis waar hij Richie aantreft in zijn woonkamer, samen met zijn vrouw. Het kwaad is zijn leven binnengedrongen. Dit is het begin van de transformatie van een onopvallende vader van twee kinderen in een wanhopige man die tot alles in staat is om zijn familie te beschermen.

Vanaf 22 mei te huur


Storyline

Follows disillusioned young family man John as a mysterious stranger, Richie takes him on a murder-fueled ride that transforms the weak-willed John into a desperate hero willing to go to any length to protect his family. 
 
http://www.imdb.com/title/tt1810697/ 
http://www.moviemeter.nl/film/83480


Source: meeting.evil.2012.720p.hdtv.x264-momentum

Complete name : MEETING.EVIL.(2012).720P.X264.NL.SUBBED.BRADJE.mkv
Format : Matroska
Format version : Version 2
File size : 2.70 GiB
Duration : 1h 28mn
Overall bit rate : 4 347 Kbps
Encoded date : UTC 2012-04-05 07:34:55
Writing application : mkvmerge v3.3.0
Writing library : libebml v0.8.0 + libmatroska v0.9.0

Video
ID : 1
Format : AVC
Format/Info : Advanced Video Codec
Format profile : High@L4.1
Format settings, CABAC : Yes
Format settings, ReFrames : 8 frames
Codec ID : V_MPEG4/ISO/AVC
Duration : 1h 28mn
Bit rate : 3 877 Kbps
Width : 1 280 pixels
Height : 720 pixels
Display aspect ratio : 16:9
Frame rate : 23.976 fps
Color space : YUV
Chroma subsampling : 4:2:0
Bit depth : 8 bits
Scan type: Progressive
Bits/(Pixel*Frame) : 0.175
Stream size : 2.41 GiB (89%)
Writing library : x264 core 122 r2184 5c85e0a
Language : English
Default : Yes
Forced : No
Matrix coefficients : BT.709-5, BT.1361, IEC 61966-2-4 709, SMPTE RP177

Audio
ID : 2
Format : AC-3
Format/Info : Audio Coding 3
Mode extension : CM (complete main)
Codec ID : A_AC3
Duration : 1h 28mn
Bit rate mode : Constant
Bit rate : 384 Kbps
Channel(s) : 6 channels
Channel positions : Front: L C R, Side: L R, LFE
Sampling rate : 48.0 KHz
Bit depth : 16 bits
Compression mode : Lossy
Stream size : 244 MiB (9%)
Title : AC3
Language : English
Default : Yes
Forced : No

Text
ID : 3
Format : UTF-8
Codec ID : S_TEXT/UTF8
Codec ID/Info : UTF-8 Plain Text
Title : SUBTITLE
Language : Dutch Custom
Vertaling : Simplyreleases
Default : Yes
Forced : No
Cover Yes

All credits voor vertalers & Bradje 

Enjoy the Movie

Kom ook eens kijken :
 
http://www.black-sam.org